<mxfile host="app.diagrams.net" agent="Mozilla/5.0 (Windows NT 10.0; Win64; x64) AppleWebKit/537.36 (KHTML, like Gecko) Chrome/140.0.0.0 Safari/537.36 Edg/140.0.0.0" version="28.2.4">
  <diagram name="Página-1" id="BBPb8KFZZpMBYuxNU8nv">
    <mxGraphModel dx="1714" dy="985" grid="1" gridSize="10" guides="1" tooltips="1" connect="1" arrows="1" fold="1" page="1" pageScale="1" pageWidth="827" pageHeight="1169" math="0" shadow="0">
      <root>
        <mxCell id="0" />
        <mxCell id="1" parent="0" />
        <mxCell id="wNhPCHc5jWUTkugUTRg2-6" value="" style="edgeStyle=orthogonalEdgeStyle;rounded=0;orthogonalLoop=1;jettySize=auto;html=1;" edge="1" parent="1" source="wNhPCHc5jWUTkugUTRg2-2" target="wNhPCHc5jWUTkugUTRg2-5">
          <mxGeometry relative="1" as="geometry" />
        </mxCell>
        <mxCell id="wNhPCHc5jWUTkugUTRg2-2" value="Inicio" style="ellipse;whiteSpace=wrap;html=1;" vertex="1" parent="1">
          <mxGeometry x="354" y="100" width="120" height="80" as="geometry" />
        </mxCell>
        <mxCell id="wNhPCHc5jWUTkugUTRg2-9" value="" style="edgeStyle=orthogonalEdgeStyle;rounded=0;orthogonalLoop=1;jettySize=auto;html=1;" edge="1" parent="1" source="wNhPCHc5jWUTkugUTRg2-3">
          <mxGeometry relative="1" as="geometry">
            <mxPoint x="414" y="520" as="targetPoint" />
          </mxGeometry>
        </mxCell>
        <mxCell id="wNhPCHc5jWUTkugUTRg2-3" value="Ler quantos" style="shape=parallelogram;perimeter=parallelogramPerimeter;whiteSpace=wrap;html=1;fixedSize=1;" vertex="1" parent="1">
          <mxGeometry x="354" y="390" width="120" height="60" as="geometry" />
        </mxCell>
        <mxCell id="wNhPCHc5jWUTkugUTRg2-7" value="" style="edgeStyle=orthogonalEdgeStyle;rounded=0;orthogonalLoop=1;jettySize=auto;html=1;" edge="1" parent="1" source="wNhPCHc5jWUTkugUTRg2-5" target="wNhPCHc5jWUTkugUTRg2-3">
          <mxGeometry relative="1" as="geometry" />
        </mxCell>
        <mxCell id="wNhPCHc5jWUTkugUTRg2-5" value="Soma = 0" style="whiteSpace=wrap;html=1;" vertex="1" parent="1">
          <mxGeometry x="354" y="270" width="120" height="60" as="geometry" />
        </mxCell>
        <mxCell id="wNhPCHc5jWUTkugUTRg2-15" value="" style="edgeStyle=orthogonalEdgeStyle;rounded=0;orthogonalLoop=1;jettySize=auto;html=1;" edge="1" parent="1" target="wNhPCHc5jWUTkugUTRg2-14">
          <mxGeometry relative="1" as="geometry">
            <mxPoint x="414" y="580" as="sourcePoint" />
          </mxGeometry>
        </mxCell>
        <mxCell id="wNhPCHc5jWUTkugUTRg2-19" value="" style="edgeStyle=orthogonalEdgeStyle;rounded=0;orthogonalLoop=1;jettySize=auto;html=1;" edge="1" parent="1" source="wNhPCHc5jWUTkugUTRg2-14" target="wNhPCHc5jWUTkugUTRg2-18">
          <mxGeometry relative="1" as="geometry" />
        </mxCell>
        <mxCell id="wNhPCHc5jWUTkugUTRg2-14" value="Ler Número" style="shape=parallelogram;perimeter=parallelogramPerimeter;whiteSpace=wrap;html=1;fixedSize=1;" vertex="1" parent="1">
          <mxGeometry x="354" y="524" width="120" height="60" as="geometry" />
        </mxCell>
        <mxCell id="wNhPCHc5jWUTkugUTRg2-35" value="" style="edgeStyle=orthogonalEdgeStyle;rounded=0;orthogonalLoop=1;jettySize=auto;html=1;" edge="1" parent="1" source="wNhPCHc5jWUTkugUTRg2-18" target="wNhPCHc5jWUTkugUTRg2-34">
          <mxGeometry relative="1" as="geometry" />
        </mxCell>
        <mxCell id="wNhPCHc5jWUTkugUTRg2-18" value="quantos = quantos - 1&lt;br&gt;Soma = Soma + número" style="whiteSpace=wrap;html=1;" vertex="1" parent="1">
          <mxGeometry x="354" y="800" width="120" height="60" as="geometry" />
        </mxCell>
        <mxCell id="wNhPCHc5jWUTkugUTRg2-33" style="edgeStyle=orthogonalEdgeStyle;rounded=0;orthogonalLoop=1;jettySize=auto;html=1;exitX=0.75;exitY=0;exitDx=0;exitDy=0;entryX=0.823;entryY=-0.01;entryDx=0;entryDy=0;entryPerimeter=0;" edge="1" parent="1" source="wNhPCHc5jWUTkugUTRg2-18" target="wNhPCHc5jWUTkugUTRg2-18">
          <mxGeometry relative="1" as="geometry" />
        </mxCell>
        <mxCell id="wNhPCHc5jWUTkugUTRg2-36" style="edgeStyle=orthogonalEdgeStyle;rounded=0;orthogonalLoop=1;jettySize=auto;html=1;" edge="1" parent="1" source="wNhPCHc5jWUTkugUTRg2-34" target="wNhPCHc5jWUTkugUTRg2-14">
          <mxGeometry relative="1" as="geometry">
            <Array as="points">
              <mxPoint x="600" y="970" />
              <mxPoint x="600" y="554" />
            </Array>
          </mxGeometry>
        </mxCell>
        <mxCell id="wNhPCHc5jWUTkugUTRg2-39" value="" style="edgeStyle=orthogonalEdgeStyle;rounded=0;orthogonalLoop=1;jettySize=auto;html=1;" edge="1" parent="1" source="wNhPCHc5jWUTkugUTRg2-34" target="wNhPCHc5jWUTkugUTRg2-38">
          <mxGeometry relative="1" as="geometry" />
        </mxCell>
        <mxCell id="wNhPCHc5jWUTkugUTRg2-34" value="Quantos &amp;lt;= 0" style="rhombus;whiteSpace=wrap;html=1;" vertex="1" parent="1">
          <mxGeometry x="374" y="930" width="80" height="80" as="geometry" />
        </mxCell>
        <mxCell id="wNhPCHc5jWUTkugUTRg2-43" value="" style="edgeStyle=orthogonalEdgeStyle;rounded=0;orthogonalLoop=1;jettySize=auto;html=1;" edge="1" parent="1" source="wNhPCHc5jWUTkugUTRg2-38" target="wNhPCHc5jWUTkugUTRg2-42">
          <mxGeometry relative="1" as="geometry" />
        </mxCell>
        <mxCell id="wNhPCHc5jWUTkugUTRg2-38" value="Escrever Soma" style="shape=parallelogram;perimeter=parallelogramPerimeter;whiteSpace=wrap;html=1;fixedSize=1;" vertex="1" parent="1">
          <mxGeometry x="354" y="1100" width="120" height="60" as="geometry" />
        </mxCell>
        <mxCell id="wNhPCHc5jWUTkugUTRg2-42" value="Fim" style="ellipse;whiteSpace=wrap;html=1;" vertex="1" parent="1">
          <mxGeometry x="354" y="1210" width="120" height="80" as="geometry" />
        </mxCell>
      </root>
    </mxGraphModel>
  </diagram>
</mxfile>
